HIERARCHY
ROOT Hips
{
  OFFSET 1.44925e-005 102.336 -0.101585
  CHANNELS 6 Xposition Yposition Zposition Zrotation Xrotation Yrotation
  JOINT LeftUpLeg
  {
    OFFSET 8.9458 -8.66707 0.101652
    CHANNELS 3 Zrotation Xrotation Yrotation
    JOINT LeftLeg
    {
      OFFSET 0 -44.4227 1.3727
      CHANNELS 3 Zrotation Xrotation Yrotation
      JOINT LeftFoot
      {
        OFFSET -0.253549 -42.0924 -1.46059
        CHANNELS 3 Zrotation Xrotation Yrotation
        JOINT LeftToes
        {
          OFFSET -0.04 -4.41509 8.4991
          CHANNELS 3 Zrotation Xrotation Yrotation
          End Site
          {
            OFFSET 0.08 -0.047448 9.77979
          }
        }
      }
    }
  }
  JOINT Spine
  {
    OFFSET 0 11.8905 0
    CHANNELS 3 Zrotation Xrotation Yrotation
    JOINT Spine1
    {
      OFFSET 0 25.6574 0.127663
      CHANNELS 3 Zrotation Xrotation Yrotation
      JOINT RightShoulder
      {
        OFFSET -8.99 -0.362252 -0.22
        CHANNELS 3 Zrotation Xrotation Yrotation
        JOINT RightArm
        {
          OFFSET -10.2827 -0.00338 0.322123
          CHANNELS 3 Zrotation Xrotation Yrotation
          JOINT RightForeArm
          {
            OFFSET -26.364 0.099144 -1.42434
            CHANNELS 3 Zrotation Xrotation Yrotation
            JOINT RightHand
            {
              OFFSET -22.0324 0.085362 1.02216
              CHANNELS 3 Zrotation Xrotation Yrotation
              End Site
              {
                OFFSET -13.3284 -0.6 1.50291
              }
            }
          }
        }
      }
      JOINT LeftShoulder1
      {
        OFFSET 8.99 -0.362252 -0.22
        CHANNELS 3 Zrotation Xrotation Yrotation
        JOINT LeftArm
        {
          OFFSET 10.2827 -0.00337999 0.322123
          CHANNELS 3 Zrotation Xrotation Yrotation
          JOINT LeftForeArm
          {
            OFFSET 26.2597 0.099144 -1.42434
            CHANNELS 3 Zrotation Xrotation Yrotation
            JOINT LeftHand
            {
              OFFSET 22.0902 0.085362 1.02216
              CHANNELS 3 Zrotation Xrotation Yrotation
              End Site
              {
                OFFSET 13.419 -0.6 1.50291
              }
            }
          }
        }
      }
      JOINT Head
      {
        OFFSET 0 8.73416 0.011341
        CHANNELS 3 Zrotation Xrotation Yrotation
        End Site
        {
          OFFSET -0.29 12.7742 2.51395
        }
      }
    }
  }
  JOINT RightUpLeg
  {
    OFFSET -8.9458 -8.66707 0.101652
    CHANNELS 3 Zrotation Xrotation Yrotation
    JOINT RightLeg
    {
      OFFSET 0 -44.4227 1.3727
      CHANNELS 3 Zrotation Xrotation Yrotation
      JOINT RightFoot
      {
        OFFSET 0.253549 -42.0924 -1.46059
        CHANNELS 3 Zrotation Xrotation Yrotation
        JOINT RightToes
        {
          OFFSET 0.04 -4.41509 8.4991
          CHANNELS 3 Zrotation Xrotation Yrotation
          End Site
          {
            OFFSET -0.08 -0.137448 9.77979
          }
        }
      }
    }
  }
}
MOTION
Frames:	8
Frame Time:	0.0333333
191.226 102.584 6.59977 -3.28087 -1.07024 -86.8688 -3.18684 -5.9527 -1.44289 1.17842 19.4413 22.4973 -5.06285 -14.03 -0.216478 -1.30026e-009 8.75245e-006 -1.48124e-008 1.86937 13.8813 -0.935797 -2.0113 -8.54058 -0.451924 36.8204 1.74528 0.0537329 40.3816 -17.3523 3.68768 6.93929 35.4887 10.4499 -8.66727 9.49866 0.449517 -43.9511 3.57235 -3.56548 -27.311 -15.1137 3.43749 -3.08823 33.1547 -16.4699 5.82328 9.61819 -0.917488 -0.065955 -0.326646 -3.68192 -1.88853 -3.42156 -5.82717 1.58043 14.9724 -10.7582 0.471874 -12.2457 -0.183134 0.0462048 0.000530889 0.662642 
191.468 102.481 6.81809 -3.49843 -0.895264 -87.0044 -3.20197 -6.69333 -0.868542 1.18529 22.5634 23.7658 -4.98185 -14.6492 -0.23616 -1.30026e-009 8.75245e-006 -1.48124e-008 2.26806 14.0747 -0.824616 -2.07022 -8.23402 -0.261961 36.6871 1.76025 0.100073 40.0426 -15.7024 3.82138 6.87377 34.1825 11.0241 -8.77532 9.53546 -0.183999 -44.022 3.58033 -3.56404 -27.5776 -15.7624 2.84283 -3.04917 33.7196 -16.3304 5.82328 9.61819 -0.917488 -0.400646 -0.643969 -3.98965 -1.82292 -3.66016 -5.79617 1.49596 15.5808 -10.6629 0.770733 -12.404 -0.170634 0.0462048 0.000530889 0.662642 
191.796 102.263 7.29144 -3.9206 -0.294283 -87.5852 -2.99483 -6.63535 -0.6729 1.23996 25.6347 24.9635 -5.26679 -15.1522 -0.274529 -1.30026e-009 8.75245e-006 -1.48124e-008 3.13241 14.1493 -0.568798 -2.14285 -7.6874 0.158016 36.6038 1.77032 0.13088 39.3361 -13.7505 4.12643 6.71707 33.4076 11.6149 -8.59401 9.58474 -0.81156 -43.9024 3.56605 -3.55509 -28.2592 -16.0451 2.361 -2.79989 33.8319 -16.557 5.82328 9.61819 -0.917488 -0.0465765 -0.0514254 -4.1614 -1.46995 -3.98162 -5.61936 1.34315 16.5311 -10.4341 1.48981 -12.7243 -0.138691 0.0462048 0.000530889 0.662642 
191.942 102.165 7.83195 -4.31916 0.63809 -88.7052 -2.25851 -4.55151 -0.104343 1.24323 24.3074 24.1129 -5.28505 -15.654 -0.295972 -1.30026e-009 8.75245e-006 -1.48124e-008 3.76206 13.7722 -0.215191 -2.10798 -7.13037 0.602218 36.5812 1.75901 0.106398 38.7267 -13.341 4.54557 6.69152 33.924 11.5777 -8.22812 9.5966 -0.764759 -43.6626 3.54169 -3.54353 -28.9871 -14.6523 2.97279 -2.17734 32.3959 -17.7071 5.82328 9.61819 -0.917488 0.773773 1.4513 -3.8229 -0.729886 -3.75105 -4.97752 1.12236 16.4247 -10.0817 2.25181 -12.5385 -0.107262 0.0462048 0.000530889 0.662642 
191.94 102.258 8.28969 -4.37501 1.23308 -89.8312 -1.34681 -1.7549 1.73355 0.925971 19.5429 21.819 -4.39811 -16.1608 -0.250009 -1.30026e-009 8.75245e-006 -1.48124e-008 3.10275 13.1282 -0.00224527 -1.31786 -7.04837 0.592731 36.6301 1.74364 0.0659647 38.3438 -14.4497 4.96202 6.90388 34.556 11.0712 -8.08308 9.5738 -0.303045 -43.5562 3.53945 -3.55536 -29.5078 -12.432 4.54725 -1.50767 30.4911 -19.136 5.82328 9.61819 -0.917488 1.04499 2.76363 -2.93821 -0.0112504 -3.26185 -3.95909 0.784255 15.3787 -9.76929 3.0461 -12.1035 -0.0815512 0.0462048 0.000530889 0.662642 
192.052 102.378 8.65779 -4.05995 1.4016 -89.8338 -0.914108 -0.307134 3.25504 -0.040705 15.6248 20.3462 -3.01418 -16.1209 -0.145021 -1.30026e-009 8.75245e-006 -1.48124e-008 0.883802 12.6779 -0.186395 0.503728 -7.59535 -0.101388 36.8312 1.74082 0.0451886 38.0773 -16.3099 5.19349 7.07198 34.3885 10.6839 -8.4334 9.54864 -0.145754 -43.597 3.54934 -3.5688 -29.6768 -11.462 5.81909 -1.49428 30.2665 -19.2769 5.82328 9.61819 -0.917488 0.911214 3.49315 -1.45341 0.0658483 -3.42122 -3.23359 0.342161 14.9654 -9.97814 4.34082 -12.4427 -0.0184719 0.0462048 0.000530889 0.662642 
192.379 102.452 9.02012 -3.81477 0.828866 -88.9542 -1.35527 -0.282238 3.40074 -0.916448 14.4232 20.0095 -2.03462 -15.4673 -0.0623633 -1.30026e-009 8.75245e-006 -1.48124e-008 -1.63743 12.6638 -0.573088 2.0834 -8.11763 -0.947375 37.039 1.73998 0.0386045 38.1457 -18.4924 5.11354 7.0147 33.604 10.6394 -9.29324 9.53343 -0.476772 -43.6066 3.53557 -3.53992 -29.2704 -12.8493 5.58885 -2.60708 32.7751 -17.2469 5.82328 9.61819 -0.917488 1.14028 3.43335 -0.990189 -0.686874 -4.22612 -3.33884 -0.0689441 16.0032 -11.1894 6.21055 -13.6431 0.119606 0.0462048 0.000530889 0.662642 
192.759 102.444 9.4433 -4.0993 0.100154 -88.284 -2.16771 -0.0574879 3.03899 -1.22887 14.1177 19.8366 -1.77094 -14.7628 -0.0371653 -1.30026e-009 8.75245e-006 -1.48124e-008 -2.46989 12.9046 -0.691218 1.83322 -7.9464 -1.15296 36.9618 1.74078 0.0414134 38.7519 -20.3865 4.77443 6.96345 32.875 10.6024 -10.1153 9.52236 -0.787879 -43.5479 3.50363 -3.48534 -28.459 -16.1353 4.03918 -4.4502 37.2502 -13.9736 5.82328 9.61819 -0.917488 1.90332 3.43341 -1.36337 -1.6505 -5.15384 -4.08925 -0.41013 18.6843 -13.2066 7.9095 -15.1428 0.304879 0.0462048 0.000530889 0.662642 
